<svg width="81" height="84" viewBox="0 0 81 84" fill="none" xmlns="http://www.w3.org/2000/svg">
<path fill-rule="evenodd" clip-rule="evenodd" d="M64.8987 56.3222L73.5041 83H46.8771C45.6091 78.8699 42.5586 69.2924 40.5 64.0237C38.4414 58.755 36.6588 61.8284 36.0249 64.0237C35.3163 67.5957 32.9818 75.3871 29.3122 77.9768C28.5893 78.487 27.9553 78.9611 27.3713 79.3978C24.2494 81.7325 22.5546 83 16.3343 83C13.0525 82.9256 5.95193 81.6604 3.80387 77.1954C1.11878 71.6142 0.223757 67.5957 2.23757 61.0098C2.42832 60.386 2.60502 59.8042 2.76966 59.2622L2.77014 59.2606C2.89772 58.8406 3.01805 58.4444 3.13207 58.0709C3.30706 57.4978 3.46719 56.9782 3.61581 56.5082C4.56455 53.5077 5.04456 52.5263 5.92956 52.5263L6.01365 52.5262C6.26992 52.5257 6.63376 52.5251 7.04834 52.5566C6.19061 52.2116 4.69889 50.6287 5.59392 47.0567C5.7758 46.3308 6.18251 44.8736 6.74082 42.9267C8.93002 35.2928 13.4501 20.1298 15.8867 12.0064C17.9006 6.72347 26.2467 -0.830441 35.018 1.40206C43.7892 3.63456 47.6602 9.62565 48.3315 13.681C48.6176 15.5021 51.1491 15.7287 51.754 13.9872L54.3487 6.51716C54.4069 6.34962 54.4643 6.17741 54.5226 6.00293C55.0015 4.56818 55.5316 2.97982 56.9343 2.56635C57.1255 2.50999 57.3161 2.48608 57.5055 2.48899C58.5156 2.50447 59.4926 3.28212 60.3527 3.96662L60.3531 3.96693C60.4496 4.04376 60.5447 4.11942 60.6381 4.19268C61.7196 5.04048 61.601 6.8362 61.3325 7.95795C62.0222 5.64468 63.6123 1.93529 65.4489 2.51836C67.418 3.14348 68.6561 4.41596 69.029 4.97406C69.2424 5.29633 69.5298 6.24931 69.2188 7.71691C69.8799 5.43183 71.3796 2.03642 73.3923 2.51836C74.0787 2.66364 74.6496 2.89213 75.1219 3.16992C77.3601 4.48623 76.8066 7.57803 76.0411 10.0534C75.8891 10.5449 75.7336 11.0475 75.575 11.56C71.4205 24.9809 65.125 45.1465 64.1064 47.7265C63.562 49.1053 63.4209 50.3586 63.4745 51.3859C63.5389 52.6191 63.976 53.7894 64.4123 54.9575C64.5818 55.4115 64.7513 55.8652 64.8987 56.3222ZM10.4761 58.4644L10.476 58.4651C9.5985 62.9522 8.53816 68.3742 9.95718 70.4979C10.0341 70.6131 10.1178 70.7414 10.2083 70.8802C11.077 72.2125 12.5769 74.5127 14.8016 75.4081C21.373 78.053 25.1034 67.8276 27.3623 61.1138L39.8287 24.0619C40.9848 19.969 41.6412 11.4037 35.018 9.88556C28.3948 8.36746 24.9489 12.4529 24.0539 14.6854L13.2517 47.318C12.4053 49.8747 11.0437 52.8298 8.35122 52.7701C9.842 53.1752 11.2848 54.251 10.7403 57.103C10.6562 57.5436 10.5672 57.999 10.4761 58.4644Z" fill="#FF39C8"/>
<path d="M38.2624 46.387H40.5M42.7376 46.387H40.5M46.8771 46.387H49.1706M51.4641 46.387H49.1706M55.268 46.387H57.058M59.855 46.387H57.058M0 83H16.3343M81 83H73.5041M73.5041 83H46.8771M73.5041 83L64.8987 56.3222M73.3923 2.51836C72.5353 5.01133 71.772 10.3098 75.575 11.56M73.3923 2.51836C71.3796 2.03642 69.8799 5.43183 69.2188 7.71691M73.3923 2.51836C74.0787 2.66364 74.6496 2.89213 75.1219 3.16992M69.029 8.43449L67.9375 11.8948M69.029 8.43449C69.1082 8.18327 69.1707 7.94393 69.2188 7.71691M69.029 8.43449C69.0815 8.21381 69.1449 7.97229 69.2188 7.71691M57.058 46.387L67.9375 11.8948M75.575 11.56C71.4205 24.9809 65.125 45.1465 64.1064 47.7265C63.562 49.1053 63.4209 50.3586 63.4745 51.3859M75.575 11.56C75.7336 11.0475 75.8891 10.5449 76.0411 10.0534M49.1706 46.387L60.101 11.8948M61.1975 8.43449L60.101 11.8948M61.1975 8.43449C61.2376 8.28433 61.2827 8.12477 61.3325 7.95795M61.1975 8.43449C61.2435 8.29693 61.2899 8.13592 61.3325 7.95795M65.4489 2.51836C67.418 3.14348 68.6561 4.41596 69.029 4.97406C69.2424 5.29633 69.5298 6.24931 69.2188 7.71691M65.4489 2.51836C64.5348 5.23455 63.7528 10.9125 67.9375 11.8948M65.4489 2.51836C63.6123 1.93529 62.0222 5.64468 61.3325 7.95795M40.5 46.387L54.3487 6.51716M57.5055 2.48899C56.2524 5.10335 55.0171 10.6446 60.101 11.8948M57.5055 2.48899C57.3161 2.48608 57.1255 2.50999 56.9343 2.56635M57.5055 2.48899C58.5156 2.50447 59.4926 3.28212 60.3527 3.96662L60.3531 3.96693C60.4496 4.04376 60.5447 4.11942 60.6381 4.19268C61.7196 5.04048 61.601 6.8362 61.3325 7.95795M46.8771 83C45.6091 78.8699 42.5586 69.2924 40.5 64.0237C38.4414 58.755 36.6588 61.8284 36.0249 64.0237C35.3163 67.5957 32.9818 75.3871 29.3122 77.9768C28.5893 78.487 27.9553 78.9611 27.3713 79.3978C24.2494 81.7325 22.5546 83 16.3343 83M46.8771 83H16.3343M16.3343 83C13.0525 82.9256 5.95193 81.6604 3.80387 77.1954C1.11878 71.6142 0.223757 67.5957 2.23757 61.0098C2.42832 60.386 2.60502 59.8042 2.76966 59.2622M5.92956 52.5263C5.04456 52.5263 4.56455 53.5077 3.61581 56.5082M5.92956 52.5263C5.95611 52.5263 5.98416 52.5263 6.01365 52.5262M5.92956 52.5263L6.01365 52.5262M7.04834 52.5566C6.19061 52.2116 4.69889 50.6287 5.59392 47.0567C5.7758 46.3308 6.18251 44.8736 6.74082 42.9267M7.04834 52.5566C8.35359 51.9613 9.39779 48.8205 8.95028 46.4987C8.50276 44.1769 7.29084 43.15 6.74082 42.9267M7.04834 52.5566C7.29436 57.2537 5.37017 58.7407 3.13207 58.0709M7.04834 52.5566C6.63376 52.5251 6.26992 52.5257 6.01365 52.5262M7.04834 52.5566C7.452 52.5873 7.90377 52.6485 8.35122 52.7701M7.04834 52.5566C7.50349 52.6957 7.93933 52.7609 8.35122 52.7701M6.74082 42.9267C8.93002 35.2928 13.4501 20.1298 15.8867 12.0064C17.9006 6.72347 26.2467 -0.830441 35.018 1.40206C43.7892 3.63456 47.6602 9.62565 48.3315 13.681V13.681C48.6176 15.5021 51.1491 15.7287 51.754 13.9872L54.3487 6.51716M3.61581 56.5082C3.46719 56.9782 3.30706 57.4978 3.13207 58.0709M3.61581 56.5082L3.13207 58.0709M3.13207 58.0709C3.01805 58.4444 2.89772 58.8406 2.77014 59.2606M64.8987 56.3222C64.7513 55.8652 64.5818 55.4115 64.4123 54.9575C63.976 53.7894 63.5389 52.6191 63.4745 51.3859M64.8987 56.3222V56.3222C64.3721 54.6898 63.5639 53.0987 63.4745 51.3859V51.3859M54.3487 6.51716C54.4069 6.34962 54.4643 6.17741 54.5226 6.00293C55.0015 4.56818 55.5316 2.97982 56.9343 2.56635M54.3487 6.51716V6.51716C54.8854 4.97189 55.3652 3.02887 56.9343 2.56635V2.56635M75.1219 3.16992C77.3601 4.48623 76.8067 7.57803 76.0411 10.0534M75.1219 3.16992V3.16992C77.3552 4.48334 76.8066 7.57821 76.0411 10.0534V10.0534M2.77014 59.2606L2.76966 59.2622M2.77014 59.2606C2.76998 59.2611 2.76982 59.2616 2.76966 59.2622M8.35122 52.7701C9.842 53.1752 11.2848 54.251 10.7403 57.103C10.6562 57.5436 10.5672 57.999 10.4761 58.4644L10.476 58.4651C9.5985 62.9522 8.53816 68.3742 9.95718 70.4979C10.0341 70.6131 10.1178 70.7414 10.2083 70.8802C11.077 72.2125 12.5769 74.5127 14.8016 75.4081C21.373 78.053 25.1034 67.8276 27.3623 61.1138L39.8287 24.0619C40.9848 19.969 41.6412 11.4037 35.018 9.88556C28.3948 8.36746 24.9489 12.4529 24.0539 14.6854L13.2517 47.318C12.4053 49.8747 11.0437 52.8298 8.35122 52.7701V52.7701Z" stroke="#212121"/>
</svg>
